<mxfile host="app.diagrams.net" modified="2024-07-16T12:05:56.427Z" agent="Mozilla/5.0 (Macintosh; Intel Mac OS X 10_15_7) AppleWebKit/537.36 (KHTML, like Gecko) Chrome/126.0.0.0 Safari/537.36" version="23.1.4" etag="8ds6iH6s85vOS4Eqvd5M" type="github">
  <diagram name="Page-1" id="3bkHK1vFudCTw1pTh5v1">
    <mxGraphModel>
      <root>
        <mxCell id="0" />
        <mxCell id="1" parent="0" />
      </root>
    </mxGraphModel>
  </diagram>
</mxfile>
